# xmcd
#
# Track frame offsets:
#	150
#	15305
#	31546
#	47248
#	64932
#	80808
#	95700
#	106725
#	124966
#	141176
#	158558
#	173796
#	190102
#	206696
#	219144
#	236597
#
# Disc length: 3349 seconds
#
# Revision: 1
# Processed by: cddbd v1.5.2PL0 Copyright (c) Steve Scherf et al.
# Submitted via: audiograbber 1.83.01
#
DISCID=d20d1310
DTITLE=EDUARDO COSTA - DE PELE, ALMA E CORAÇÃO
DYEAR=2011
DGENRE=Country
TTITLE0=QUEM É
TTITLE1=PELE ALMA E CORAÇÃO
TTITLE2=PÉ DE MACACO
TTITLE3=ELA SAIU À FRANCESA
TTITLE4=PAGUEI PRA VER
TTITLE5=NENHUMA ESPERANÇA
TTITLE6=TOMARA A DEUS
TTITLE7=MEU GRITO DE AMOR (PART. PAULA FERNANDES)
TTITLE8=EU QUERO TE AMAR
TTITLE9=SOU SEU FÃ NÚMERO 1
TTITLE10=SOLIDÃO POR PERTO
TTITLE11=VONTADE DIVIDIDA
TTITLE12=PRIMEIRO DE ABRIL (PART. BELO)
TTITLE13=CACHACEIRO
TTITLE14=DIZ QUE É MENTIRA
TTITLE15=TEM TUDO A VER
EXTD=
EXTT0=
EXTT1=
EXTT2=
EXTT3=
EXTT4=
EXTT5=
EXTT6=
EXTT7=
EXTT8=
EXTT9=
EXTT10=
EXTT11=
EXTT12=
EXTT13=
EXTT14=
EXTT15=
PLAYORDER=
